<?xml version="1.0" standalone="no"?>
<!DOCTYPE svg PUBLIC "-//W3C//DTD SVG 20010904//EN"
 "http://www.w3.org/TR/2001/REC-SVG-20010904/DTD/svg10.dtd">
<svg version="1.0" xmlns="http://www.w3.org/2000/svg"
 width="512.000000pt" height="512.000000pt" viewBox="0 0 512.000000 512.000000"
 preserveAspectRatio="xMidYMid meet">

<g transform="translate(0.000000,512.000000) scale(0.100000,-0.100000)"
fill="#000000" stroke="none">
<path d="M1258 5110 c-266 -46 -481 -210 -593 -453 -76 -164 -70 7 -70 -2097
0 -2104 -6 -1933 70 -2097 100 -217 277 -367 512 -435 l78 -23 1305 0 1305 0
78 23 c235 68 412 218 512 435 75 162 70 43 70 1677 0 1414 -1 1467 -19 1520
-24 70 -82 166 -154 255 -69 85 -897 916 -1001 1005 -90 76 -196 146 -265 174
-50 21 -64 21 -916 22 -476 1 -886 -2 -912 -6z m1596 -403 c27 -15 48 -38 65
-72 l26 -49 5 -446 c5 -430 6 -446 27 -485 24 -46 44 -66 90 -89 27 -14 77
-16 350 -16 413 -1 553 -10 618 -41 58 -28 84 -61 96 -120 12 -65 11 -2579 -1
-2659 -27 -168 -160 -303 -326 -330 -80 -13 -2408 -13 -2488 0 -166 27 -299
162 -326 330 -14 90 -14 3570 0 3660 26 163 161 303 316 330 27 4 378 8 779 9
l730 1 39 -23z"/>
<path d="M1530 3141 c-85 -21 -150 -104 -150 -192 0 -74 65 -158 138 -179 26
-8 352 -10 1064 -8 l1026 3 43 30 c126 89 112 267 -25 331 l-51 24 -1010 -1
c-555 -1 -1021 -4 -1035 -8z"/>
<path d="M1512 2349 c-68 -20 -132 -113 -132 -192 0 -63 49 -133 114 -163 l51
-24 810 0 c540 0 823 4 848 11 50 14 113 71 128 116 17 52 7 135 -22 178 -13
20 -45 47 -71 61 l-47 24 -823 -1 c-486 0 -836 -5 -856 -10z"/>
<path d="M1495 1553 c-69 -36 -115 -105 -115 -173 0 -65 49 -143 111 -176 33
-18 76 -19 1069 -19 976 0 1037 1 1068 18 147 80 147 273 0 348 -36 18 -74 19
-1070 19 -922 -1 -1036 -2 -1063 -17z"/>
</g>
</svg>
