<svg xmlns="http://www.w3.org/2000/svg" version="1.1" xmlns:xlink="http://www.w3.org/1999/xlink" xmlns:svgjs="http://svgjs.dev/svgjs" width="1000" height="623" viewBox="0 0 1000 623"><g transform="matrix(1,0,0,1,-0.6060606060606233,0.2522267206477409)"><svg viewBox="0 0 396 247" data-background-color="#ffffff" preserveAspectRatio="xMidYMid meet" height="623" width="1000" xmlns="http://www.w3.org/2000/svg" xmlns:xlink="http://www.w3.org/1999/xlink"><g id="tight-bounds" transform="matrix(1,0,0,1,0.2400000000000091,-0.09999999999999432)"><svg viewBox="0 0 395.52 247.2" height="247.2" width="395.52"><g><svg></svg></g><g><svg viewBox="0 0 395.52 247.2" height="247.2" width="395.52"><g transform="matrix(1,0,0,1,75.54432,97.6249148385862)"><svg viewBox="0 0 244.43135999999998 51.9501703228276" height="51.9501703228276" width="244.43135999999998"><g><svg viewBox="0 0 244.43135999999998 51.9501703228276" height="51.9501703228276" width="244.43135999999998"><g><svg viewBox="0 0 322.356002506369 68.51186866853628" height="51.9501703228276" width="244.43135999999998"><g transform="matrix(1,0,0,1,77.92464250636904,9.468717015694956)"><svg viewBox="0 0 244.43135999999998 49.57443463714637" height="49.57443463714637" width="244.43135999999998"><g id="textblocktransform"><svg viewBox="0 0 244.43135999999998 49.57443463714637" height="49.57443463714637" width="244.43135999999998" id="textblock"><g><svg viewBox="0 0 244.43135999999998 49.57443463714637" height="49.57443463714637" width="244.43135999999998"><g transform="matrix(1,0,0,1,0,0)"><svg width="244.43135999999998" viewBox="3.049999952316284 -37.099998474121094 182.9149932861328 37.099998474121094" height="49.57443463714637" data-palette-color="#e74b4b"><path d="M3.05-36.05L3.05-36.05Q3.05-37.1 3.9-37.1L3.9-37.1 30.05-37.1Q30.85-37.1 30.85-36.15L30.85-36.15 30.85-30.95Q30.85-29.75 29.65-29.75L29.65-29.75 14.2-29.75Q13.15-29.75 13.15-28.85L13.15-28.85 13.15-23.2Q13.15-22.25 13.95-22.25L13.95-22.25 23.7-22.25Q24.65-22.25 24.65-21.35L24.65-21.35 24.65-15.8Q24.65-15.5 24.48-15.28 24.3-15.05 23.85-15.05L23.85-15.05 13.9-15.05Q13.15-15.05 13.15-14.35L13.15-14.35 13.15-8Q13.15-7.35 13.7-7.35L13.7-7.35 30.35-7.35Q31.35-7.35 31.35-6.5L31.35-6.5 31.35-1Q31.35-0.6 31.1-0.3 30.85 0 30.3 0L30.3 0 4.25 0Q3.05 0 3.05-1.15L3.05-1.15 3.05-36.05ZM77.65-1.5L77.65-1.5Q77.9-0.9 77.62-0.45 77.34 0 76.8 0L76.8 0 68.25 0Q67.3 0 67-0.95L67-0.95 62-14.4Q61.7-15.15 60.5-15.15L60.5-15.15 57.05-15.15Q56.7-15.15 56.57-14.95 56.45-14.75 56.45-14.6L56.45-14.6 56.45-1.35Q56.45 0 54.95 0L54.95 0 47.5 0Q46.84 0 46.59-0.28 46.34-0.55 46.34-1.15L46.34-1.15 46.34-36.05Q46.34-37.1 47.2-37.1L47.2-37.1 63.4-37.1Q70.4-37.1 74.25-34.4 78.09-31.7 78.09-26.7L78.09-26.7Q78.09-24.25 77.19-22.25 76.3-20.25 74.8-18.88 73.3-17.5 71.4-16.8L71.4-16.8Q70.95-16.6 71.2-15.9L71.2-15.9 77.65-1.5ZM62.75-21.85L62.75-21.85Q65.15-21.85 66.4-22.98 67.65-24.1 67.65-26.05L67.65-26.05Q67.65-28.2 66.22-29.33 64.8-30.45 62.75-30.45L62.75-30.45 57.5-30.45Q56.45-30.45 56.45-29.55L56.45-29.55 56.45-22.85Q56.45-21.85 57.2-21.85L57.2-21.85 62.75-21.85ZM82.89-36.05L82.89-36.05Q82.89-37.1 83.74-37.1L83.74-37.1 109.89-37.1Q110.69-37.1 110.69-36.15L110.69-36.15 110.69-30.95Q110.69-29.75 109.49-29.75L109.49-29.75 94.04-29.75Q92.99-29.75 92.99-28.85L92.99-28.85 92.99-23.2Q92.99-22.25 93.79-22.25L93.79-22.25 103.54-22.25Q104.49-22.25 104.49-21.35L104.49-21.35 104.49-15.8Q104.49-15.5 104.32-15.28 104.14-15.05 103.69-15.05L103.69-15.05 93.74-15.05Q92.99-15.05 92.99-14.35L92.99-14.35 92.99-8Q92.99-7.35 93.54-7.35L93.54-7.35 110.19-7.35Q111.19-7.35 111.19-6.5L111.19-6.5 111.19-1Q111.19-0.6 110.94-0.3 110.69 0 110.14 0L110.14 0 84.09 0Q82.89 0 82.89-1.15L82.89-1.15 82.89-36.05ZM147.34-1.5L147.34-1.5Q147.59-0.9 147.31-0.45 147.04 0 146.49 0L146.49 0 137.94 0Q136.99 0 136.69-0.95L136.69-0.95 131.69-14.4Q131.39-15.15 130.19-15.15L130.19-15.15 126.74-15.15Q126.39-15.15 126.27-14.95 126.14-14.75 126.14-14.6L126.14-14.6 126.14-1.35Q126.14 0 124.64 0L124.64 0 117.19 0Q116.54 0 116.29-0.28 116.04-0.55 116.04-1.15L116.04-1.15 116.04-36.05Q116.04-37.1 116.89-37.1L116.89-37.1 133.09-37.1Q140.09-37.1 143.94-34.4 147.79-31.7 147.79-26.7L147.79-26.7Q147.79-24.25 146.89-22.25 145.99-20.25 144.49-18.88 142.99-17.5 141.09-16.8L141.09-16.8Q140.64-16.6 140.89-15.9L140.89-15.9 147.34-1.5ZM132.44-21.85L132.44-21.85Q134.84-21.85 136.09-22.98 137.34-24.1 137.34-26.05L137.34-26.05Q137.34-28.2 135.92-29.33 134.49-30.45 132.44-30.45L132.44-30.45 127.19-30.45Q126.14-30.45 126.14-29.55L126.14-29.55 126.14-22.85Q126.14-21.85 126.89-21.85L126.89-21.85 132.44-21.85ZM150.34 0L150.34 0Q149.84 0 149.61-0.48 149.39-0.95 149.64-1.65L149.64-1.65 161.94-36.05Q162.14-36.6 162.44-36.85 162.74-37.1 163.34-37.1L163.34-37.1 172.04-37.1Q173.29-37.1 173.74-35.85L173.74-35.85 185.89-1.55Q186.04-1.1 185.89-0.55 185.74 0 185.19 0L185.19 0 176.59 0Q175.79 0 175.54-0.8L175.54-0.8 173.34-7.3Q173.24-7.5 173.11-7.68 172.99-7.85 172.59-7.85L172.59-7.85 161.24-7.85Q160.69-7.85 160.54-7.3L160.54-7.3 158.19-0.7Q158.09-0.4 157.84-0.2 157.59 0 157.09 0L157.09 0 150.34 0ZM163.39-15.45L170.34-15.45Q171.04-15.45 170.79-16.4L170.79-16.4 167.19-26.45Q167.09-26.7 166.89-26.7 166.69-26.7 166.59-26.45L166.59-26.45 162.94-16.4Q162.59-15.45 163.39-15.45L163.39-15.45Z" opacity="1" transform="matrix(1,0,0,1,0,0)" fill="#e74b4b" class="wordmark-text-0" data-fill-palette-color="primary" id="text-0"></path></svg></g></svg></g></svg></g></svg></g><g><svg viewBox="0 0 66.22130827497007 68.51186866853628" height="68.51186866853628" width="66.22130827497007"><g><svg xmlns="http://www.w3.org/2000/svg" xmlns:xlink="http://www.w3.org/1999/xlink" version="1.1" x="0" y="0" viewBox="7.797000408172607 4.980999946594238 87.16500091552734 90.17999267578125" enable-background="new 0 0 100 100" xml:space="preserve" height="68.51186866853628" width="66.22130827497007" class="icon-icon-0" data-fill-palette-color="accent" id="icon-0"><path fill="#ee3e38" d="M72.212 88.72H57.953h-0.929H14.239V11.423h57.973v35.389l6.44-11.542V11.568c0-3.646-2.548-6.587-6.194-6.587H13.97c-3.646 0-6.173 2.94-6.173 6.587v77.408c0 3.647 2.527 6.185 6.173 6.185h58.488c3.646 0 6.194-2.537 6.194-6.185V67.771l-6.44 11.542V88.72z" data-fill-palette-color="accent"></path><rect x="19.76" y="21.545" fill="#ee3e38" width="35.888" height="4.601" data-fill-palette-color="accent"></rect><rect x="19.76" y="42.71" fill="#ee3e38" width="35.888" height="4.601" data-fill-palette-color="accent"></rect><rect x="19.76" y="32.587" fill="#ee3e38" width="46.93" height="4.602" data-fill-palette-color="accent"></rect><rect x="19.76" y="53.752" fill="#ee3e38" width="46.93" height="4.602" data-fill-palette-color="accent"></rect><rect x="19.76" y="63.874" fill="#ee3e38" width="35.888" height="4.603" data-fill-palette-color="accent"></rect><polygon fill="#ee3e38" points="88.496,28.171 86.751,31.209 85.997,32.521 92.466,36.234 93.217,34.924 94.962,31.886 " data-fill-palette-color="accent"></polygon><polygon fill="#ee3e38" points="61.169,74.541 61.169,82.277 67.816,78.255 90.711,38.638 84.243,34.924 " data-fill-palette-color="accent"></polygon><polygon points="28.578,76.02 26.547,73.99 24.168,76.367 21.789,73.99 19.758,76.02 22.138,78.397 19.758,80.78 21.789,82.812   24.168,80.431 26.547,82.812 28.578,80.78 26.199,78.397 " fill="#ee3e38" data-fill-palette-color="accent"></polygon><g fill="#ee3e38" data-fill-palette-color="accent"><rect x="30.669" y="80.415" width="25.009" height="1.862" fill="#ee3e38" data-fill-palette-color="accent"></rect></g></svg></g></svg></g></svg></g></svg></g></svg></g><path d="M194.09 91.625L194.09 28.861 4.611 28.861 4.611 218.339 194.09 218.339 194.09 155.575 190.7 155.575 190.7 214.95 8.001 214.95 8.001 32.25 190.7 32.25 190.7 91.625Z" fill="#e74b4b" stroke="transparent" data-fill-palette-color="primary"></path></svg></g><defs></defs></svg><rect width="395.52" height="247.2" fill="none" stroke="none" visibility="hidden"></rect></g></svg></g></svg>